# xmcd CD database file generated by Grip 2.9
# 
# Track frame offsets:
#       150
#       14582
#       27917
#       50762
#       57265
#       102077
#       129277
#       142082
#       168222
#       176940
#       195272
#       219840
#       229740
#       246630
#       266955
# 
# Disc length: 4119 seconds
# 
# Revision: 3
# Processed by: cddbd v1.4b41PL1 Copyright (c) Steve Scherf et al.
# Submitted via: Grip 2.9
# 
DISCID=db10150f
DTITLE=Chicago Spoken Word Performers - Snake in the Heart
DYEAR=1900
DGENRE=
TTITLE0=Palmas - Lusi J Rodriguez
TTITLE1=Spinning Till You Get Dizzy - Patricia Smith
TTITLE2=Manchild - W Micahel Warr M Mark Messing
TTITLE3=I'm a Stranger Here Myself - Cin Salach and Sheila Donahue
TTITLE4=Beat the Drum - W Christopher Stewart 
TTITLE4=M Christopher Stewart and Circadian Rhythm
TTITLE5=San Francisco Sky - W Marvin Tate M Forest Roush and Marvin Tate
TTITLE6=The Ultimate Blues Bar - Patricia Smith
TTITLE7=Mosquito Song - W Rohan Preston M Mitar Covic
TTITLE8=Being Outside Most of the Time - Cin Salach and Sheila Donahue
TTITLE9=La Mujer - W Micahel Warr M Mitar Covic
TTITLE10=Beautiful Women - W Cin Salach M The Loofah Method
TTITLE11=Malcom is bout more than Wearing a Hat - Michael Warr
TTITLE12=Schoolyard of Broken Dreams - W Marvin Tate M Forest Roush and 
TTITLE12=Marvin Tate
TTITLE13=Undertaker - Patricia Smith
TTITLE14=Liquid Thoughts - W David Hernandez M Street Sounds
EXTD=
EXTT0=
EXTT1=
EXTT2=
EXTT3=
EXTT4=
EXTT5=
EXTT6=
EXTT7=
EXTT8=
EXTT9=
EXTT10=
EXTT11=
EXTT12=
EXTT13=
EXTT14=
PLAYORDER=
